<?xml version="1.0" encoding="UTF-8"?>
<svg xmlns="http://www.w3.org/2000/svg" xmlns:xlink="http://www.w3.org/1999/xlink" width="20px" height="20px" viewBox="0 0 20 20" version="1.1">
<g id="surface1">
<path style=" stroke:none;fill-rule:evenodd;fill:rgb(98.039216%,77.254902%,39.215686%);fill-opacity:1;" d="M 10 5 C 7.238281 5 5 7.238281 5 10 C 5 12.761719 7.238281 15 10 15 C 12.761719 15 15 12.761719 15 10 C 15 7.238281 12.761719 5 10 5 Z M 3.332031 10 C 3.332031 6.316406 6.316406 3.332031 10 3.332031 C 13.683594 3.332031 16.667969 6.316406 16.667969 10 C 16.667969 13.683594 13.683594 16.667969 10 16.667969 C 6.316406 16.667969 3.332031 13.683594 3.332031 10 Z M 3.332031 10 "/>
<path style=" stroke:none;fill-rule:evenodd;fill:rgb(98.039216%,77.254902%,39.215686%);fill-opacity:1;" d="M 15 10 C 15 9.539062 15.375 9.167969 15.832031 9.167969 L 17.5 9.167969 C 17.960938 9.167969 18.332031 9.539062 18.332031 10 C 18.332031 10.460938 17.960938 10.832031 17.5 10.832031 L 15.832031 10.832031 C 15.375 10.832031 15 10.460938 15 10 Z M 15 10 "/>
<path style=" stroke:none;fill-rule:evenodd;fill:rgb(98.039216%,77.254902%,39.215686%);fill-opacity:1;" d="M 1.667969 10 C 1.667969 9.539062 2.039062 9.167969 2.5 9.167969 L 4.167969 9.167969 C 4.625 9.167969 5 9.539062 5 10 C 5 10.460938 4.625 10.832031 4.167969 10.832031 L 2.5 10.832031 C 2.039062 10.832031 1.667969 10.460938 1.667969 10 Z M 1.667969 10 "/>
<path style=" stroke:none;fill-rule:evenodd;fill:rgb(98.039216%,77.254902%,39.215686%);fill-opacity:1;" d="M 10 15 C 10.460938 15 10.832031 15.375 10.832031 15.832031 L 10.832031 17.5 C 10.832031 17.960938 10.460938 18.332031 10 18.332031 C 9.539062 18.332031 9.167969 17.960938 9.167969 17.5 L 9.167969 15.832031 C 9.167969 15.375 9.539062 15 10 15 Z M 10 15 "/>
<path style=" stroke:none;fill-rule:evenodd;fill:rgb(98.039216%,77.254902%,39.215686%);fill-opacity:1;" d="M 10 1.667969 C 10.460938 1.667969 10.832031 2.039062 10.832031 2.5 L 10.832031 4.167969 C 10.832031 4.625 10.460938 5 10 5 C 9.539062 5 9.167969 4.625 9.167969 4.167969 L 9.167969 2.5 C 9.167969 2.039062 9.539062 1.667969 10 1.667969 Z M 10 1.667969 "/>
<path style=" stroke:none;fill-rule:evenodd;fill:rgb(98.039216%,77.254902%,39.215686%);fill-opacity:1;" d="M 10 8.332031 C 9.078125 8.332031 8.332031 9.078125 8.332031 10 C 8.332031 10.921875 9.078125 11.667969 10 11.667969 C 10.921875 11.667969 11.667969 10.921875 11.667969 10 C 11.667969 9.078125 10.921875 8.332031 10 8.332031 Z M 6.667969 10 C 6.667969 8.160156 8.160156 6.667969 10 6.667969 C 11.839844 6.667969 13.332031 8.160156 13.332031 10 C 13.332031 11.839844 11.839844 13.332031 10 13.332031 C 8.160156 13.332031 6.667969 11.839844 6.667969 10 Z M 6.667969 10 "/>
</g>
</svg>
