<svg xmlns="http://www.w3.org/2000/svg" xmlns:xlink="http://www.w3.org/1999/xlink" width="60px" height="60px" viewBox="0 0 60 60" version="1.1">
<g id="surface1">
<path style=" stroke:none;fill-rule:nonzero;fill:rgb(0%,0%,0%);fill-opacity:1;" d="M 11.25 47.8125 C 9.695312 47.8125 8.4375 49.070312 8.4375 50.625 C 8.4375 52.179688 9.695312 53.4375 11.25 53.4375 C 12.804688 53.4375 14.0625 52.179688 14.0625 50.625 C 14.0625 49.074219 12.800781 47.8125 11.25 47.8125 Z M 11.25 51.5625 C 10.730469 51.5625 10.3125 51.144531 10.3125 50.625 C 10.3125 50.105469 10.730469 49.6875 11.25 49.6875 C 11.769531 49.6875 12.1875 50.105469 12.1875 50.625 C 12.1875 51.140625 11.765625 51.5625 11.25 51.5625 Z M 11.25 51.5625 "/>
<path style=" stroke:none;fill-rule:nonzero;fill:rgb(0%,0%,0%);fill-opacity:1;" d="M 55.3125 17.8125 L 44.0625 17.8125 C 43.558594 17.8125 43.0625 17.949219 42.628906 18.207031 C 42.40625 17.753906 42.109375 17.34375 41.753906 16.988281 L 41.523438 16.761719 C 41.347656 16.585938 41.25 16.347656 41.25 16.097656 L 41.25 14.96875 C 42.863281 14.734375 44.0625 13.351562 44.0625 11.71875 L 44.0625 6.011719 C 44.0625 3.726562 42.210938 1.875 39.925781 1.875 L 31.324219 1.875 C 29.039062 1.875 27.1875 3.726562 27.1875 6.011719 L 27.1875 7.5 L 26.25 7.5 L 26.25 9.375 L 30 9.375 L 30 11.523438 C 29.992188 13.441406 31.164062 15.167969 32.945312 15.875 L 34.097656 16.335938 C 34.453125 16.476562 34.6875 16.824219 34.6875 17.207031 L 34.6875 18.363281 L 34.300781 18.75 L 23.488281 18.75 C 23.398438 18.496094 23.273438 18.261719 23.117188 18.042969 C 22.59375 17.304688 21.742188 16.871094 20.835938 16.875 L 15.347656 16.875 C 13.191406 16.875 11.226562 18.125 10.308594 20.078125 C 9.394531 22.035156 9.691406 24.34375 11.074219 26.003906 L 12.636719 27.878906 C 12.855469 28.140625 12.914062 28.5 12.792969 28.816406 L 8.726562 39.386719 C 8.296875 39.421875 7.882812 39.550781 7.507812 39.765625 L 3.066406 42.300781 C 1.9375 42.945312 1.363281 44.246094 1.644531 45.511719 C 1.929688 46.777344 3.003906 47.710938 4.296875 47.8125 C 3.195312 50.53125 3.785156 53.644531 5.800781 55.777344 C 7.816406 57.910156 10.890625 58.671875 13.667969 57.722656 C 16.449219 56.777344 18.417969 54.296875 18.710938 51.375 C 19.03125 51.5 19.371094 51.5625 19.714844 51.5625 L 38.5 51.5625 C 38.992188 55.492188 42.457031 58.359375 46.40625 58.109375 C 50.359375 57.863281 53.4375 54.585938 53.4375 50.625 L 53.4375 45.964844 C 53.433594 45.199219 53.902344 44.507812 54.617188 44.226562 L 55.769531 43.765625 C 57.195312 43.199219 58.128906 41.816406 58.125 40.285156 L 58.125 38.4375 C 58.125 37.496094 57.769531 36.585938 57.128906 35.894531 C 57.761719 35.363281 58.125 34.578125 58.125 33.75 L 58.125 20.625 C 58.125 19.074219 56.863281 17.8125 55.3125 17.8125 Z M 30 7.5 L 29.0625 7.5 L 29.0625 6.011719 C 29.0625 4.761719 30.074219 3.75 31.324219 3.75 L 39.925781 3.75 C 41.175781 3.75 42.1875 4.761719 42.1875 6.011719 L 42.1875 11.71875 C 42.1875 12.101562 42.03125 12.464844 41.757812 12.730469 C 41.480469 12.996094 41.109375 13.136719 40.730469 13.125 C 39.984375 13.097656 39.375 12.441406 39.375 11.664062 C 39.371094 9.363281 37.511719 7.503906 35.210938 7.5 Z M 38.753906 14.292969 L 36.488281 16.5625 C 36.28125 15.667969 35.648438 14.933594 34.792969 14.59375 L 34.773438 14.585938 L 37.554688 12.269531 C 37.695312 13.066406 38.121094 13.789062 38.753906 14.292969 Z M 32.90625 13.703125 C 32.25 13.167969 31.871094 12.367188 31.875 11.523438 L 31.875 9.375 L 35.210938 9.375 C 35.921875 9.375 36.59375 9.707031 37.023438 10.269531 Z M 23.488281 20.625 L 32.425781 20.625 L 31.375 21.675781 C 30.847656 22.207031 30.128906 22.503906 29.382812 22.5 L 22.863281 22.5 Z M 22.5 24.375 L 29.382812 24.375 C 30.628906 24.378906 31.820312 23.882812 32.699219 23.003906 L 39.382812 16.316406 C 39.433594 16.984375 39.722656 17.613281 40.199219 18.085938 L 40.425781 18.316406 C 40.957031 18.839844 41.253906 19.558594 41.25 20.304688 L 41.25 27.1875 L 35.625 27.1875 L 35.625 25.699219 L 38.164062 23.164062 L 36.835938 21.835938 L 33.25 25.425781 C 32.722656 25.957031 32.003906 26.253906 31.257812 26.25 L 22.5 26.25 Z M 23.753906 45.9375 L 22.527344 45.9375 C 22.226562 45.9375 21.941406 45.789062 21.765625 45.542969 L 18.242188 40.613281 C 17.957031 40.214844 17.578125 39.894531 17.136719 39.679688 L 20.988281 28.125 L 31.257812 28.125 C 32.140625 28.125 33.003906 27.878906 33.75 27.410156 L 33.75 30 C 33.75 30.515625 33.328125 30.9375 32.8125 30.9375 L 31.875 30.9375 C 29.289062 30.941406 27.191406 33.039062 27.1875 35.625 L 27.1875 41.25 L 26.71875 41.25 C 25.59375 41.25 24.546875 41.824219 23.945312 42.777344 C 23.34375 43.726562 23.273438 44.921875 23.753906 45.9375 Z M 19.6875 26.25 C 19.167969 26.25 18.75 25.832031 18.75 25.3125 C 18.75 24.792969 19.167969 24.375 19.6875 24.375 L 20.625 24.375 L 20.625 26.25 Z M 26.71875 43.125 L 31.875 43.125 L 31.875 44.53125 C 31.875 45.308594 31.246094 45.9375 30.46875 45.9375 L 26.71875 45.9375 C 25.941406 45.9375 25.3125 45.308594 25.3125 44.53125 C 25.3125 43.753906 25.941406 43.125 26.71875 43.125 Z M 29.0625 41.25 L 29.0625 35.625 C 29.0625 34.074219 30.324219 32.8125 31.875 32.8125 L 32.8125 32.8125 C 34.363281 32.8125 35.625 31.550781 35.625 30 L 35.625 29.0625 L 41.25 29.0625 L 41.25 33.75 C 41.25 34.265625 40.828125 34.6875 40.3125 34.6875 L 35.625 34.6875 C 33.554688 34.691406 31.878906 36.367188 31.875 38.4375 L 31.875 41.25 Z M 17.550781 18.75 L 20.835938 18.75 C 21.136719 18.75 21.421875 18.894531 21.597656 19.140625 C 21.773438 19.382812 21.820312 19.699219 21.726562 19.984375 L 20.886719 22.5 L 19.6875 22.5 C 18.261719 22.5 17.058594 23.566406 16.894531 24.984375 C 16.726562 26.402344 17.648438 27.71875 19.039062 28.046875 L 16.699219 35.0625 L 13.59375 31.957031 L 14.542969 29.488281 C 14.90625 28.539062 14.730469 27.460938 14.078125 26.679688 L 13.058594 25.457031 L 14.03125 24.96875 C 15.144531 24.417969 15.992188 23.441406 16.378906 22.261719 Z M 11.964844 23.90625 C 11.472656 22.765625 11.582031 21.453125 12.265625 20.414062 C 12.945312 19.375 14.105469 18.75 15.347656 18.75 L 15.574219 18.75 L 14.601562 21.667969 C 14.367188 22.375 13.859375 22.960938 13.191406 23.292969 Z M 12.855469 33.871094 L 16.035156 37.050781 L 15.261719 39.375 L 10.738281 39.375 Z M 11.25 56.25 C 8.921875 56.25 6.835938 54.816406 6 52.644531 C 5.164062 50.472656 5.753906 48.007812 7.480469 46.449219 L 9.386719 45.179688 C 9.5625 45.0625 9.773438 45 9.984375 45 L 13.023438 45 C 13.375 45 13.699219 45.167969 13.902344 45.453125 L 16.746094 49.433594 C 17.109375 51.097656 16.695312 52.832031 15.628906 54.15625 C 14.5625 55.480469 12.949219 56.25 11.25 56.25 Z M 45.9375 56.25 C 42.832031 56.25 40.3125 53.730469 40.3125 50.625 C 40.3125 47.519531 42.832031 45 45.9375 45 C 49.042969 45 51.5625 47.519531 51.5625 50.625 C 51.558594 53.730469 49.042969 56.246094 45.9375 56.25 Z M 55.070312 42.023438 L 53.917969 42.484375 C 52.589844 43.011719 51.675781 44.253906 51.574219 45.683594 C 49.628906 43.460938 46.5625 42.589844 43.738281 43.453125 C 40.917969 44.316406 38.863281 46.757812 38.5 49.6875 L 19.714844 49.6875 C 19.414062 49.6875 19.128906 49.539062 18.953125 49.292969 L 18.484375 48.640625 L 18.484375 48.632812 L 18.480469 48.632812 L 15.429688 44.363281 C 14.875 43.585938 13.976562 43.125 13.023438 43.125 L 9.984375 43.125 C 9.402344 43.125 8.832031 43.296875 8.347656 43.621094 L 6.382812 44.929688 L 6.378906 44.921875 C 6.363281 44.9375 6.347656 44.949219 6.332031 44.964844 L 5.132812 45.765625 C 4.875 45.9375 4.554688 45.988281 4.253906 45.910156 C 3.957031 45.832031 3.707031 45.625 3.566406 45.351562 C 3.3125 44.835938 3.5 44.214844 3.996094 43.929688 L 8.4375 41.390625 C 8.601562 41.300781 8.785156 41.25 8.972656 41.25 L 15.835938 41.25 C 16.1875 41.25 16.511719 41.417969 16.714844 41.703125 L 20.238281 46.636719 C 20.765625 47.375 21.621094 47.8125 22.527344 47.8125 L 30.46875 47.8125 C 32.28125 47.808594 33.746094 46.34375 33.75 44.53125 L 33.75 40.3125 L 56.25 40.3125 C 56.242188 41.070312 55.773438 41.746094 55.070312 42.023438 Z M 33.75 38.4375 C 33.75 37.402344 34.589844 36.5625 35.625 36.5625 L 54.375 36.5625 C 55.410156 36.5625 56.25 37.402344 56.25 38.4375 Z M 56.25 33.75 C 56.25 34.265625 55.828125 34.6875 55.3125 34.6875 L 44.0625 34.6875 C 43.546875 34.6875 43.125 34.265625 43.125 33.75 L 43.125 23.4375 L 56.25 23.4375 Z M 56.25 21.5625 L 43.125 21.5625 L 43.125 20.625 C 43.125 20.109375 43.546875 19.6875 44.0625 19.6875 L 55.3125 19.6875 C 55.828125 19.6875 56.25 20.109375 56.25 20.625 Z M 56.25 21.5625 "/>
<path style=" stroke:none;fill-rule:nonzero;fill:rgb(0%,0%,0%);fill-opacity:1;" d="M 46.875 13.125 L 54.375 13.125 L 54.375 15 L 46.875 15 Z M 46.875 13.125 "/>
<path style=" stroke:none;fill-rule:nonzero;fill:rgb(0%,0%,0%);fill-opacity:1;" d="M 48.75 9.375 L 56.25 9.375 L 56.25 11.25 L 48.75 11.25 Z M 48.75 9.375 "/>
<path style=" stroke:none;fill-rule:nonzero;fill:rgb(0%,0%,0%);fill-opacity:1;" d="M 52.5 5.625 L 58.125 5.625 L 58.125 7.5 L 52.5 7.5 Z M 52.5 5.625 "/>
<path style=" stroke:none;fill-rule:nonzero;fill:rgb(0%,0%,0%);fill-opacity:1;" d="M 45.9375 47.8125 C 44.382812 47.8125 43.125 49.070312 43.125 50.625 C 43.125 52.179688 44.382812 53.4375 45.9375 53.4375 C 47.492188 53.4375 48.75 52.179688 48.75 50.625 C 48.75 49.074219 47.488281 47.8125 45.9375 47.8125 Z M 45.9375 51.5625 C 45.417969 51.5625 45 51.144531 45 50.625 C 45 50.105469 45.417969 49.6875 45.9375 49.6875 C 46.457031 49.6875 46.875 50.105469 46.875 50.625 C 46.875 51.140625 46.453125 51.5625 45.9375 51.5625 Z M 45.9375 51.5625 "/>
<path style=" stroke:none;fill-rule:nonzero;fill:rgb(0%,0%,0%);fill-opacity:1;" d="M 38.4375 5.625 L 40.3125 5.625 L 40.3125 7.5 L 38.4375 7.5 Z M 38.4375 5.625 "/>
<path style=" stroke:none;fill-rule:nonzero;fill:rgb(0%,0%,0%);fill-opacity:1;" d="M 54.375 30.9375 C 54.371094 28.710938 52.804688 26.792969 50.625 26.34375 L 50.625 25.3125 L 48.75 25.3125 L 48.75 26.34375 C 46.570312 26.792969 45.003906 28.710938 45 30.9375 L 45 32.8125 L 54.375 32.8125 Z M 46.875 30.9375 C 46.875 29.382812 48.132812 28.125 49.6875 28.125 C 51.242188 28.125 52.5 29.382812 52.5 30.9375 Z M 46.875 30.9375 "/>
</g>
</svg>