<?xml version="1.0" encoding="UTF-8"?>
<svg xmlns="http://www.w3.org/2000/svg" xmlns:xlink="http://www.w3.org/1999/xlink" width="24px" height="24px" viewBox="0 0 24 24" version="1.1">
<g id="surface1">
<path style=" stroke:none;fill-rule:nonzero;fill:rgb(100%,100%,100%);fill-opacity:1;" d="M 24 4.554688 C 23.105469 4.949219 22.15625 5.210938 21.164062 5.335938 C 22.183594 4.726562 22.960938 3.769531 23.332031 2.617188 C 22.378906 3.179688 21.328125 3.585938 20.210938 3.804688 C 19.304688 2.847656 18.019531 2.25 16.617188 2.25 C 13.890625 2.25 11.695312 4.460938 11.695312 7.171875 C 11.695312 7.5625 11.730469 7.9375 11.8125 8.292969 C 7.722656 8.09375 4.101562 6.132812 1.671875 3.148438 C 1.246094 3.882812 0.996094 4.726562 0.996094 5.632812 C 0.996094 7.335938 1.875 8.851562 3.179688 9.726562 C 2.394531 9.710938 1.617188 9.476562 0.960938 9.117188 C 0.960938 9.132812 0.960938 9.148438 0.960938 9.171875 C 0.960938 11.5625 2.664062 13.546875 4.898438 14.007812 C 4.503906 14.117188 4.066406 14.164062 3.613281 14.164062 C 3.296875 14.164062 2.976562 14.148438 2.679688 14.085938 C 3.320312 16.03125 5.128906 17.460938 7.277344 17.507812 C 5.601562 18.820312 3.476562 19.609375 1.179688 19.609375 C 0.773438 19.609375 0.386719 19.589844 0 19.539062 C 2.179688 20.945312 4.761719 21.75 7.546875 21.75 C 16.601562 21.75 21.554688 14.25 21.554688 7.75 C 21.554688 7.53125 21.542969 7.320312 21.535156 7.113281 C 22.507812 6.417969 23.332031 5.554688 24 4.554688 Z M 24 4.554688 "/>
</g>
</svg>
