<?xml version="1.0" encoding="UTF-8"?>
<svg xmlns="http://www.w3.org/2000/svg" xmlns:xlink="http://www.w3.org/1999/xlink" width="24px" height="24px" viewBox="0 0 24 24" version="1.1">
<g id="surface1">
<path style=" stroke:none;fill-rule:nonzero;fill:rgb(100%,100%,100%);fill-opacity:1;" d="M 9.167969 13.53125 C 9.082031 13.53125 7.132812 13.53125 6.246094 13.53125 C 5.773438 13.53125 5.625 13.355469 5.625 12.914062 C 5.625 11.730469 5.625 10.523438 5.625 9.339844 C 5.625 8.867188 5.804688 8.722656 6.246094 8.722656 L 9.167969 8.722656 C 9.167969 8.632812 9.167969 6.917969 9.167969 6.121094 C 9.167969 4.941406 9.375 3.820312 9.964844 2.789062 C 10.585938 1.726562 11.472656 1.015625 12.59375 0.601562 C 13.332031 0.335938 14.070312 0.21875 14.867188 0.21875 L 17.757812 0.21875 C 18.171875 0.21875 18.351562 0.398438 18.351562 0.808594 L 18.351562 4.175781 C 18.351562 4.585938 18.171875 4.765625 17.757812 4.765625 C 16.960938 4.765625 16.164062 4.765625 15.367188 4.792969 C 14.570312 4.792969 14.15625 5.179688 14.15625 6.003906 C 14.128906 6.890625 14.15625 7.746094 14.15625 8.664062 L 17.582031 8.664062 C 18.054688 8.664062 18.230469 8.835938 18.230469 9.308594 L 18.230469 12.882812 C 18.230469 13.355469 18.085938 13.503906 17.582031 13.503906 C 16.519531 13.503906 14.246094 13.503906 14.15625 13.503906 L 14.15625 23.125 C 14.15625 23.628906 14.007812 23.804688 13.476562 23.804688 C 12.238281 23.804688 11.027344 23.804688 9.789062 23.804688 C 9.347656 23.804688 9.167969 23.628906 9.167969 23.183594 C 9.167969 20.085938 9.167969 13.621094 9.167969 13.53125 Z M 9.167969 13.53125 "/>
</g>
</svg>
