<?xml version="1.0" encoding="UTF-8"?>
<svg xmlns="http://www.w3.org/2000/svg" xmlns:xlink="http://www.w3.org/1999/xlink" width="24px" height="24px" viewBox="0 0 24 24" version="1.1">
<g id="surface1">
<path style=" stroke:none;fill-rule:nonzero;fill:rgb(100%,100%,100%);fill-opacity:1;" d="M 12.003906 5.835938 C 8.601562 5.835938 5.847656 8.597656 5.847656 11.996094 C 5.847656 15.398438 8.601562 18.152344 12.003906 18.152344 C 15.40625 18.152344 18.164062 15.398438 18.164062 11.996094 C 18.164062 8.59375 15.402344 5.835938 12.003906 5.835938 Z M 12.003906 15.992188 C 9.792969 15.992188 8.007812 14.203125 8.007812 11.996094 C 8.007812 9.789062 9.796875 8 12.003906 8 C 14.210938 8 16 9.789062 16 11.996094 C 16.003906 14.203125 14.210938 15.992188 12.003906 15.992188 Z M 12.003906 15.992188 "/>
<path style=" stroke:none;fill-rule:nonzero;fill:rgb(100%,100%,100%);fill-opacity:1;" d="M 16.945312 0.0742188 C 14.742188 -0.0273438 9.273438 -0.0234375 7.0625 0.0742188 C 5.117188 0.164062 3.40625 0.636719 2.023438 2.015625 C -0.285156 4.324219 0.0117188 7.433594 0.0117188 11.996094 C 0.0117188 16.664062 -0.246094 19.703125 2.023438 21.976562 C 4.339844 24.289062 7.496094 23.988281 12.003906 23.988281 C 16.628906 23.988281 18.226562 23.992188 19.859375 23.359375 C 22.082031 22.492188 23.757812 20.507812 23.925781 16.9375 C 24.027344 14.730469 24.023438 9.261719 23.925781 7.054688 C 23.726562 2.835938 21.464844 0.285156 16.945312 0.0742188 Z M 20.445312 20.445312 C 18.929688 21.960938 16.832031 21.824219 11.976562 21.824219 C 6.976562 21.824219 4.96875 21.898438 3.507812 20.433594 C 1.820312 18.757812 2.128906 16.0625 2.128906 11.980469 C 2.128906 6.457031 1.558594 2.476562 7.105469 2.191406 C 8.378906 2.148438 8.753906 2.132812 11.960938 2.132812 L 12.007812 2.164062 C 17.335938 2.164062 21.515625 1.601562 21.765625 7.148438 C 21.824219 8.414062 21.835938 8.792969 21.835938 11.992188 C 21.835938 16.9375 21.929688 18.953125 20.445312 20.445312 Z M 20.445312 20.445312 "/>
<path style=" stroke:none;fill-rule:nonzero;fill:rgb(100%,100%,100%);fill-opacity:1;" d="M 19.84375 5.59375 C 19.84375 6.390625 19.199219 7.035156 18.40625 7.035156 C 17.613281 7.035156 16.964844 6.390625 16.964844 5.59375 C 16.964844 4.800781 17.613281 4.15625 18.40625 4.15625 C 19.199219 4.15625 19.84375 4.800781 19.84375 5.59375 Z M 19.84375 5.59375 "/>
</g>
</svg>
